<mxfile host="app.diagrams.net" modified="2023-10-20T10:16:05.318Z" agent="Mozilla/5.0 (Windows NT 10.0; Win64; x64) AppleWebKit/537.36 (KHTML, like Gecko) Chrome/118.0.0.0 Safari/537.36" etag="xm1K6RbT1EN-rKJZnsuE" version="22.0.5" type="github">
  <diagram name="Page-1" id="74e2e168-ea6b-b213-b513-2b3c1d86103e">
    <mxGraphModel dx="1434" dy="1600" grid="1" gridSize="10" guides="1" tooltips="1" connect="1" arrows="1" fold="1" page="1" pageScale="1" pageWidth="1100" pageHeight="850" background="none" math="0" shadow="0">
      <root>
        <mxCell id="0" />
        <mxCell id="1" parent="0" />
        <mxCell id="ABTa0oG12swVFIuZJu5J-2" value="" style="shape=link;html=1;rounded=0;" edge="1" parent="1">
          <mxGeometry width="100" relative="1" as="geometry">
            <mxPoint x="540" y="-148" as="sourcePoint" />
            <mxPoint x="540" y="990" as="targetPoint" />
          </mxGeometry>
        </mxCell>
        <mxCell id="ABTa0oG12swVFIuZJu5J-3" value="Début" style="ellipse;whiteSpace=wrap;html=1;" vertex="1" parent="1">
          <mxGeometry x="190" y="-126" width="120" height="60" as="geometry" />
        </mxCell>
        <mxCell id="ABTa0oG12swVFIuZJu5J-4" value="" style="endArrow=none;html=1;rounded=0;" edge="1" parent="1">
          <mxGeometry width="50" height="50" relative="1" as="geometry">
            <mxPoint x="250" y="-16" as="sourcePoint" />
            <mxPoint x="250" y="-16" as="targetPoint" />
          </mxGeometry>
        </mxCell>
        <mxCell id="ABTa0oG12swVFIuZJu5J-6" style="edgeStyle=orthogonalEdgeStyle;rounded=0;orthogonalLoop=1;jettySize=auto;html=1;entryX=0.5;entryY=0;entryDx=0;entryDy=0;" edge="1" parent="1">
          <mxGeometry relative="1" as="geometry">
            <mxPoint x="210" y="-66" as="sourcePoint" />
            <mxPoint x="210" y="-66" as="targetPoint" />
          </mxGeometry>
        </mxCell>
        <mxCell id="ABTa0oG12swVFIuZJu5J-7" value="" style="endArrow=none;html=1;rounded=0;exitX=0.5;exitY=0;exitDx=0;exitDy=0;" edge="1" parent="1">
          <mxGeometry width="50" height="50" relative="1" as="geometry">
            <mxPoint x="250" y="-16" as="sourcePoint" />
            <mxPoint x="252.5" y="-66" as="targetPoint" />
          </mxGeometry>
        </mxCell>
        <mxCell id="ABTa0oG12swVFIuZJu5J-8" value="Recettes" style="shape=parallelogram;perimeter=parallelogramPerimeter;whiteSpace=wrap;html=1;fixedSize=1;" vertex="1" parent="1">
          <mxGeometry x="180" y="-16" width="120" height="60" as="geometry" />
        </mxCell>
        <mxCell id="ABTa0oG12swVFIuZJu5J-9" value="searchText.length = nb de lettres dans l&#39;input" style="rounded=0;whiteSpace=wrap;html=1;" vertex="1" parent="1">
          <mxGeometry x="80" y="74" width="150" height="60" as="geometry" />
        </mxCell>
        <mxCell id="ABTa0oG12swVFIuZJu5J-10" value="" style="endArrow=none;html=1;rounded=0;exitX=0.526;exitY=0.033;exitDx=0;exitDy=0;exitPerimeter=0;" edge="1" parent="1" source="ABTa0oG12swVFIuZJu5J-9">
          <mxGeometry width="50" height="50" relative="1" as="geometry">
            <mxPoint x="230" y="64" as="sourcePoint" />
            <mxPoint x="250" y="44" as="targetPoint" />
          </mxGeometry>
        </mxCell>
        <mxCell id="ABTa0oG12swVFIuZJu5J-15" value="recipe.name = nom de la recette" style="rounded=0;whiteSpace=wrap;html=1;" vertex="1" parent="1">
          <mxGeometry x="290" y="74" width="180" height="60" as="geometry" />
        </mxCell>
        <mxCell id="ABTa0oG12swVFIuZJu5J-16" value="" style="endArrow=none;html=1;rounded=0;entryX=1;entryY=1;entryDx=0;entryDy=0;exitX=0.406;exitY=-0.017;exitDx=0;exitDy=0;exitPerimeter=0;" edge="1" parent="1" source="ABTa0oG12swVFIuZJu5J-15" target="ABTa0oG12swVFIuZJu5J-8">
          <mxGeometry width="50" height="50" relative="1" as="geometry">
            <mxPoint x="520" y="154" as="sourcePoint" />
            <mxPoint x="570" y="104" as="targetPoint" />
          </mxGeometry>
        </mxCell>
        <mxCell id="ABTa0oG12swVFIuZJu5J-17" value="searchText = &quot;&quot;" style="rhombus;whiteSpace=wrap;html=1;" vertex="1" parent="1">
          <mxGeometry x="65" y="184" width="180" height="120" as="geometry" />
        </mxCell>
        <mxCell id="ABTa0oG12swVFIuZJu5J-18" value="" style="endArrow=none;html=1;rounded=0;exitX=0.5;exitY=0;exitDx=0;exitDy=0;" edge="1" parent="1" source="ABTa0oG12swVFIuZJu5J-17">
          <mxGeometry width="50" height="50" relative="1" as="geometry">
            <mxPoint x="110" y="184" as="sourcePoint" />
            <mxPoint x="160" y="134" as="targetPoint" />
          </mxGeometry>
        </mxCell>
        <mxCell id="ABTa0oG12swVFIuZJu5J-20" value="" style="endArrow=classic;html=1;rounded=0;" edge="1" parent="1">
          <mxGeometry relative="1" as="geometry">
            <mxPoint x="240" y="243.5" as="sourcePoint" />
            <mxPoint x="340" y="243.5" as="targetPoint" />
          </mxGeometry>
        </mxCell>
        <mxCell id="ABTa0oG12swVFIuZJu5J-21" value="OUI" style="edgeLabel;resizable=0;html=1;align=center;verticalAlign=middle;" connectable="0" vertex="1" parent="ABTa0oG12swVFIuZJu5J-20">
          <mxGeometry relative="1" as="geometry" />
        </mxCell>
        <mxCell id="ABTa0oG12swVFIuZJu5J-27" value="&lt;br&gt;" style="edgeLabel;html=1;align=center;verticalAlign=middle;resizable=0;points=[];" vertex="1" connectable="0" parent="ABTa0oG12swVFIuZJu5J-20">
          <mxGeometry x="0.08" y="5" relative="1" as="geometry">
            <mxPoint y="1" as="offset" />
          </mxGeometry>
        </mxCell>
        <mxCell id="ABTa0oG12swVFIuZJu5J-29" value="&lt;br&gt;" style="edgeLabel;html=1;align=center;verticalAlign=middle;resizable=0;points=[];" vertex="1" connectable="0" parent="ABTa0oG12swVFIuZJu5J-20">
          <mxGeometry x="-0.14" relative="1" as="geometry">
            <mxPoint y="1" as="offset" />
          </mxGeometry>
        </mxCell>
        <mxCell id="ABTa0oG12swVFIuZJu5J-23" value="return tableau de recipe" style="shape=parallelogram;perimeter=parallelogramPerimeter;whiteSpace=wrap;html=1;fixedSize=1;" vertex="1" parent="1">
          <mxGeometry x="330" y="214" width="160" height="60" as="geometry" />
        </mxCell>
        <mxCell id="ABTa0oG12swVFIuZJu5J-24" value="" style="endArrow=classic;html=1;rounded=0;" edge="1" parent="1">
          <mxGeometry relative="1" as="geometry">
            <mxPoint x="154.5" y="304" as="sourcePoint" />
            <mxPoint x="154.5" y="384" as="targetPoint" />
          </mxGeometry>
        </mxCell>
        <mxCell id="ABTa0oG12swVFIuZJu5J-26" value="Non" style="edgeLabel;html=1;align=center;verticalAlign=middle;resizable=0;points=[];" vertex="1" connectable="0" parent="ABTa0oG12swVFIuZJu5J-24">
          <mxGeometry x="0.08" y="-1" relative="1" as="geometry">
            <mxPoint as="offset" />
          </mxGeometry>
        </mxCell>
        <mxCell id="ABTa0oG12swVFIuZJu5J-31" value="recipe.name = searchText&amp;nbsp;&lt;br&gt;ou&lt;br&gt;recipe.description = searchText" style="rhombus;whiteSpace=wrap;html=1;" vertex="1" parent="1">
          <mxGeometry x="30" y="384" width="250" height="130" as="geometry" />
        </mxCell>
        <mxCell id="ABTa0oG12swVFIuZJu5J-32" value="" style="endArrow=classic;html=1;rounded=0;" edge="1" parent="1">
          <mxGeometry relative="1" as="geometry">
            <mxPoint x="280" y="448.5" as="sourcePoint" />
            <mxPoint x="380" y="448.5" as="targetPoint" />
          </mxGeometry>
        </mxCell>
        <mxCell id="ABTa0oG12swVFIuZJu5J-33" value="OUI" style="edgeLabel;resizable=0;html=1;align=center;verticalAlign=middle;" connectable="0" vertex="1" parent="ABTa0oG12swVFIuZJu5J-32">
          <mxGeometry relative="1" as="geometry" />
        </mxCell>
        <mxCell id="ABTa0oG12swVFIuZJu5J-34" value="&lt;br&gt;" style="edgeLabel;html=1;align=center;verticalAlign=middle;resizable=0;points=[];" vertex="1" connectable="0" parent="ABTa0oG12swVFIuZJu5J-32">
          <mxGeometry x="-0.06" y="-3" relative="1" as="geometry">
            <mxPoint y="1" as="offset" />
          </mxGeometry>
        </mxCell>
        <mxCell id="ABTa0oG12swVFIuZJu5J-35" value="matchFound = true" style="shape=parallelogram;perimeter=parallelogramPerimeter;whiteSpace=wrap;html=1;fixedSize=1;" vertex="1" parent="1">
          <mxGeometry x="370" y="419" width="160" height="60" as="geometry" />
        </mxCell>
        <mxCell id="ABTa0oG12swVFIuZJu5J-36" value="" style="endArrow=classic;html=1;rounded=0;" edge="1" parent="1">
          <mxGeometry relative="1" as="geometry">
            <mxPoint x="154.5" y="514" as="sourcePoint" />
            <mxPoint x="154.5" y="584" as="targetPoint" />
          </mxGeometry>
        </mxCell>
        <mxCell id="ABTa0oG12swVFIuZJu5J-37" value="NON" style="edgeLabel;resizable=0;html=1;align=center;verticalAlign=middle;" connectable="0" vertex="1" parent="ABTa0oG12swVFIuZJu5J-36">
          <mxGeometry relative="1" as="geometry" />
        </mxCell>
        <mxCell id="ABTa0oG12swVFIuZJu5J-38" value="recipe.ingrédients" style="rounded=0;whiteSpace=wrap;html=1;" vertex="1" parent="1">
          <mxGeometry x="47.5" y="584" width="215" height="60" as="geometry" />
        </mxCell>
        <mxCell id="ABTa0oG12swVFIuZJu5J-40" value="ingredient = searchText" style="rhombus;whiteSpace=wrap;html=1;" vertex="1" parent="1">
          <mxGeometry x="50" y="670" width="180" height="110" as="geometry" />
        </mxCell>
        <mxCell id="ABTa0oG12swVFIuZJu5J-41" value="" style="endArrow=none;html=1;rounded=0;exitX=0.5;exitY=0;exitDx=0;exitDy=0;" edge="1" parent="1" source="ABTa0oG12swVFIuZJu5J-40">
          <mxGeometry width="50" height="50" relative="1" as="geometry">
            <mxPoint x="155" y="704" as="sourcePoint" />
            <mxPoint x="145" y="644" as="targetPoint" />
          </mxGeometry>
        </mxCell>
        <mxCell id="ABTa0oG12swVFIuZJu5J-43" value="" style="endArrow=classic;html=1;rounded=0;" edge="1" parent="1">
          <mxGeometry relative="1" as="geometry">
            <mxPoint x="230" y="724.5" as="sourcePoint" />
            <mxPoint x="330" y="724.5" as="targetPoint" />
          </mxGeometry>
        </mxCell>
        <mxCell id="ABTa0oG12swVFIuZJu5J-44" value="OUI" style="edgeLabel;resizable=0;html=1;align=center;verticalAlign=middle;" connectable="0" vertex="1" parent="ABTa0oG12swVFIuZJu5J-43">
          <mxGeometry relative="1" as="geometry" />
        </mxCell>
        <mxCell id="ABTa0oG12swVFIuZJu5J-45" value="matchFound = true" style="shape=parallelogram;perimeter=parallelogramPerimeter;whiteSpace=wrap;html=1;fixedSize=1;" vertex="1" parent="1">
          <mxGeometry x="320" y="690" width="160" height="60" as="geometry" />
        </mxCell>
        <mxCell id="ABTa0oG12swVFIuZJu5J-46" value="matchFound = true" style="shape=parallelogram;perimeter=parallelogramPerimeter;whiteSpace=wrap;html=1;fixedSize=1;" vertex="1" parent="1">
          <mxGeometry x="55" y="820" width="200" height="60" as="geometry" />
        </mxCell>
        <mxCell id="ABTa0oG12swVFIuZJu5J-47" value="" style="endArrow=classic;html=1;rounded=0;" edge="1" parent="1">
          <mxGeometry relative="1" as="geometry">
            <mxPoint x="240" y="849" as="sourcePoint" />
            <mxPoint x="340" y="849" as="targetPoint" />
          </mxGeometry>
        </mxCell>
        <mxCell id="ABTa0oG12swVFIuZJu5J-48" value="OUI" style="edgeLabel;resizable=0;html=1;align=center;verticalAlign=middle;" connectable="0" vertex="1" parent="ABTa0oG12swVFIuZJu5J-47">
          <mxGeometry relative="1" as="geometry" />
        </mxCell>
        <mxCell id="ABTa0oG12swVFIuZJu5J-49" value="return tableau de recipe filtrées" style="shape=parallelogram;perimeter=parallelogramPerimeter;whiteSpace=wrap;html=1;fixedSize=1;" vertex="1" parent="1">
          <mxGeometry x="330" y="820" width="160" height="60" as="geometry" />
        </mxCell>
        <mxCell id="ABTa0oG12swVFIuZJu5J-50" value="Début" style="ellipse;whiteSpace=wrap;html=1;" vertex="1" parent="1">
          <mxGeometry x="760" y="-120" width="120" height="60" as="geometry" />
        </mxCell>
        <mxCell id="ABTa0oG12swVFIuZJu5J-51" value="" style="endArrow=none;html=1;rounded=0;" edge="1" parent="1">
          <mxGeometry width="50" height="50" relative="1" as="geometry">
            <mxPoint x="820" y="-10" as="sourcePoint" />
            <mxPoint x="820" y="-10" as="targetPoint" />
          </mxGeometry>
        </mxCell>
        <mxCell id="ABTa0oG12swVFIuZJu5J-52" style="edgeStyle=orthogonalEdgeStyle;rounded=0;orthogonalLoop=1;jettySize=auto;html=1;entryX=0.5;entryY=0;entryDx=0;entryDy=0;" edge="1" parent="1">
          <mxGeometry relative="1" as="geometry">
            <mxPoint x="780" y="-60" as="sourcePoint" />
            <mxPoint x="780" y="-60" as="targetPoint" />
          </mxGeometry>
        </mxCell>
        <mxCell id="ABTa0oG12swVFIuZJu5J-53" value="" style="endArrow=none;html=1;rounded=0;exitX=0.5;exitY=0;exitDx=0;exitDy=0;" edge="1" parent="1">
          <mxGeometry width="50" height="50" relative="1" as="geometry">
            <mxPoint x="820" y="-10" as="sourcePoint" />
            <mxPoint x="822.5" y="-60" as="targetPoint" />
          </mxGeometry>
        </mxCell>
        <mxCell id="ABTa0oG12swVFIuZJu5J-54" value="Recettes" style="shape=parallelogram;perimeter=parallelogramPerimeter;whiteSpace=wrap;html=1;fixedSize=1;" vertex="1" parent="1">
          <mxGeometry x="750" y="-10" width="120" height="60" as="geometry" />
        </mxCell>
        <mxCell id="ABTa0oG12swVFIuZJu5J-55" value="searchText.length = nb de lettres dans l&#39;input" style="rounded=0;whiteSpace=wrap;html=1;" vertex="1" parent="1">
          <mxGeometry x="650" y="80" width="150" height="60" as="geometry" />
        </mxCell>
        <mxCell id="ABTa0oG12swVFIuZJu5J-56" value="" style="endArrow=none;html=1;rounded=0;exitX=0.526;exitY=0.033;exitDx=0;exitDy=0;exitPerimeter=0;" edge="1" parent="1" source="ABTa0oG12swVFIuZJu5J-55">
          <mxGeometry width="50" height="50" relative="1" as="geometry">
            <mxPoint x="800" y="70" as="sourcePoint" />
            <mxPoint x="820" y="50" as="targetPoint" />
          </mxGeometry>
        </mxCell>
        <mxCell id="ABTa0oG12swVFIuZJu5J-57" value="recipe.name = nom de la recette" style="rounded=0;whiteSpace=wrap;html=1;" vertex="1" parent="1">
          <mxGeometry x="860" y="80" width="180" height="60" as="geometry" />
        </mxCell>
        <mxCell id="ABTa0oG12swVFIuZJu5J-58" value="" style="endArrow=none;html=1;rounded=0;entryX=1;entryY=1;entryDx=0;entryDy=0;exitX=0.406;exitY=-0.017;exitDx=0;exitDy=0;exitPerimeter=0;" edge="1" parent="1" source="ABTa0oG12swVFIuZJu5J-57" target="ABTa0oG12swVFIuZJu5J-54">
          <mxGeometry width="50" height="50" relative="1" as="geometry">
            <mxPoint x="1090" y="160" as="sourcePoint" />
            <mxPoint x="1140" y="110" as="targetPoint" />
          </mxGeometry>
        </mxCell>
        <mxCell id="ABTa0oG12swVFIuZJu5J-59" value="searchText = &quot;&quot;&lt;br&gt;ou&amp;nbsp;&lt;br&gt;searchText.length &amp;lt; 3" style="rhombus;whiteSpace=wrap;html=1;" vertex="1" parent="1">
          <mxGeometry x="635" y="190" width="180" height="120" as="geometry" />
        </mxCell>
        <mxCell id="ABTa0oG12swVFIuZJu5J-60" value="" style="endArrow=none;html=1;rounded=0;exitX=0.5;exitY=0;exitDx=0;exitDy=0;" edge="1" parent="1" source="ABTa0oG12swVFIuZJu5J-59">
          <mxGeometry width="50" height="50" relative="1" as="geometry">
            <mxPoint x="680" y="190" as="sourcePoint" />
            <mxPoint x="730" y="140" as="targetPoint" />
          </mxGeometry>
        </mxCell>
        <mxCell id="ABTa0oG12swVFIuZJu5J-61" value="" style="endArrow=classic;html=1;rounded=0;" edge="1" parent="1">
          <mxGeometry relative="1" as="geometry">
            <mxPoint x="810" y="249.5" as="sourcePoint" />
            <mxPoint x="910" y="249.5" as="targetPoint" />
          </mxGeometry>
        </mxCell>
        <mxCell id="ABTa0oG12swVFIuZJu5J-62" value="OUI" style="edgeLabel;resizable=0;html=1;align=center;verticalAlign=middle;" connectable="0" vertex="1" parent="ABTa0oG12swVFIuZJu5J-61">
          <mxGeometry relative="1" as="geometry" />
        </mxCell>
        <mxCell id="ABTa0oG12swVFIuZJu5J-63" value="&lt;br&gt;" style="edgeLabel;html=1;align=center;verticalAlign=middle;resizable=0;points=[];" vertex="1" connectable="0" parent="ABTa0oG12swVFIuZJu5J-61">
          <mxGeometry x="0.08" y="5" relative="1" as="geometry">
            <mxPoint y="1" as="offset" />
          </mxGeometry>
        </mxCell>
        <mxCell id="ABTa0oG12swVFIuZJu5J-64" value="&lt;br&gt;" style="edgeLabel;html=1;align=center;verticalAlign=middle;resizable=0;points=[];" vertex="1" connectable="0" parent="ABTa0oG12swVFIuZJu5J-61">
          <mxGeometry x="-0.14" relative="1" as="geometry">
            <mxPoint y="1" as="offset" />
          </mxGeometry>
        </mxCell>
        <mxCell id="ABTa0oG12swVFIuZJu5J-65" value="return tableau de recipe" style="shape=parallelogram;perimeter=parallelogramPerimeter;whiteSpace=wrap;html=1;fixedSize=1;" vertex="1" parent="1">
          <mxGeometry x="900" y="220" width="160" height="60" as="geometry" />
        </mxCell>
        <mxCell id="ABTa0oG12swVFIuZJu5J-66" value="" style="endArrow=classic;html=1;rounded=0;" edge="1" parent="1">
          <mxGeometry relative="1" as="geometry">
            <mxPoint x="724.5" y="310" as="sourcePoint" />
            <mxPoint x="724.5" y="390" as="targetPoint" />
          </mxGeometry>
        </mxCell>
        <mxCell id="ABTa0oG12swVFIuZJu5J-67" value="Non" style="edgeLabel;html=1;align=center;verticalAlign=middle;resizable=0;points=[];" vertex="1" connectable="0" parent="ABTa0oG12swVFIuZJu5J-66">
          <mxGeometry x="0.08" y="-1" relative="1" as="geometry">
            <mxPoint as="offset" />
          </mxGeometry>
        </mxCell>
        <mxCell id="ABTa0oG12swVFIuZJu5J-68" value="recipe.name = searchText&amp;nbsp;&lt;br&gt;ou&lt;br&gt;recipe.description = searchText" style="rhombus;whiteSpace=wrap;html=1;" vertex="1" parent="1">
          <mxGeometry x="600" y="390" width="250" height="130" as="geometry" />
        </mxCell>
        <mxCell id="ABTa0oG12swVFIuZJu5J-69" value="" style="endArrow=classic;html=1;rounded=0;" edge="1" parent="1">
          <mxGeometry relative="1" as="geometry">
            <mxPoint x="850" y="454.5" as="sourcePoint" />
            <mxPoint x="950" y="454.5" as="targetPoint" />
          </mxGeometry>
        </mxCell>
        <mxCell id="ABTa0oG12swVFIuZJu5J-70" value="OUI" style="edgeLabel;resizable=0;html=1;align=center;verticalAlign=middle;" connectable="0" vertex="1" parent="ABTa0oG12swVFIuZJu5J-69">
          <mxGeometry relative="1" as="geometry" />
        </mxCell>
        <mxCell id="ABTa0oG12swVFIuZJu5J-71" value="&lt;br&gt;" style="edgeLabel;html=1;align=center;verticalAlign=middle;resizable=0;points=[];" vertex="1" connectable="0" parent="ABTa0oG12swVFIuZJu5J-69">
          <mxGeometry x="-0.06" y="-3" relative="1" as="geometry">
            <mxPoint y="1" as="offset" />
          </mxGeometry>
        </mxCell>
        <mxCell id="ABTa0oG12swVFIuZJu5J-72" value="" style="endArrow=classic;html=1;rounded=0;" edge="1" parent="1">
          <mxGeometry relative="1" as="geometry">
            <mxPoint x="724.5" y="520" as="sourcePoint" />
            <mxPoint x="724.5" y="590" as="targetPoint" />
          </mxGeometry>
        </mxCell>
        <mxCell id="ABTa0oG12swVFIuZJu5J-73" value="NON" style="edgeLabel;resizable=0;html=1;align=center;verticalAlign=middle;" connectable="0" vertex="1" parent="ABTa0oG12swVFIuZJu5J-72">
          <mxGeometry relative="1" as="geometry" />
        </mxCell>
        <mxCell id="ABTa0oG12swVFIuZJu5J-84" value="" style="endArrow=none;html=1;rounded=0;" edge="1" parent="1" target="ABTa0oG12swVFIuZJu5J-85">
          <mxGeometry width="50" height="50" relative="1" as="geometry">
            <mxPoint x="380" y="880" as="sourcePoint" />
            <mxPoint x="410" y="880" as="targetPoint" />
            <Array as="points">
              <mxPoint x="380" y="880" />
            </Array>
          </mxGeometry>
        </mxCell>
        <mxCell id="ABTa0oG12swVFIuZJu5J-85" value="Fin" style="ellipse;whiteSpace=wrap;html=1;" vertex="1" parent="1">
          <mxGeometry x="210" y="910" width="120" height="80" as="geometry" />
        </mxCell>
        <mxCell id="ABTa0oG12swVFIuZJu5J-86" value="return tableau de recipe&lt;br&gt;filtrées" style="shape=parallelogram;perimeter=parallelogramPerimeter;whiteSpace=wrap;html=1;fixedSize=1;" vertex="1" parent="1">
          <mxGeometry x="940" y="430" width="160" height="60" as="geometry" />
        </mxCell>
        <mxCell id="ABTa0oG12swVFIuZJu5J-87" value="" style="endArrow=none;html=1;rounded=0;" edge="1" parent="1">
          <mxGeometry width="50" height="50" relative="1" as="geometry">
            <mxPoint x="1000" y="530" as="sourcePoint" />
            <mxPoint x="1010" y="490" as="targetPoint" />
          </mxGeometry>
        </mxCell>
        <mxCell id="ABTa0oG12swVFIuZJu5J-88" value="recipe.ingrédients" style="rounded=0;whiteSpace=wrap;html=1;" vertex="1" parent="1">
          <mxGeometry x="870" y="530" width="215" height="60" as="geometry" />
        </mxCell>
        <mxCell id="ABTa0oG12swVFIuZJu5J-89" value="return tableau de recipe&lt;br&gt;filtrées" style="shape=parallelogram;perimeter=parallelogramPerimeter;whiteSpace=wrap;html=1;fixedSize=1;" vertex="1" parent="1">
          <mxGeometry x="880" y="620" width="160" height="60" as="geometry" />
        </mxCell>
        <mxCell id="ABTa0oG12swVFIuZJu5J-90" value="" style="endArrow=none;html=1;rounded=0;" edge="1" parent="1">
          <mxGeometry width="50" height="50" relative="1" as="geometry">
            <mxPoint x="972.5" y="624" as="sourcePoint" />
            <mxPoint x="982.5" y="584" as="targetPoint" />
          </mxGeometry>
        </mxCell>
        <mxCell id="ABTa0oG12swVFIuZJu5J-91" value="recipe.description" style="rounded=0;whiteSpace=wrap;html=1;" vertex="1" parent="1">
          <mxGeometry x="825" y="720" width="215" height="60" as="geometry" />
        </mxCell>
        <mxCell id="ABTa0oG12swVFIuZJu5J-92" value="" style="endArrow=none;html=1;rounded=0;" edge="1" parent="1">
          <mxGeometry width="50" height="50" relative="1" as="geometry">
            <mxPoint x="940" y="720" as="sourcePoint" />
            <mxPoint x="950" y="680" as="targetPoint" />
          </mxGeometry>
        </mxCell>
        <mxCell id="ABTa0oG12swVFIuZJu5J-93" value="return tableau de recipe&lt;br&gt;filtrées" style="shape=parallelogram;perimeter=parallelogramPerimeter;whiteSpace=wrap;html=1;fixedSize=1;" vertex="1" parent="1">
          <mxGeometry x="840" y="800" width="160" height="60" as="geometry" />
        </mxCell>
        <mxCell id="ABTa0oG12swVFIuZJu5J-94" value="" style="endArrow=none;html=1;rounded=0;exitX=0.5;exitY=0;exitDx=0;exitDy=0;" edge="1" parent="1" source="ABTa0oG12swVFIuZJu5J-93">
          <mxGeometry width="50" height="50" relative="1" as="geometry">
            <mxPoint x="920" y="790" as="sourcePoint" />
            <mxPoint x="930" y="770" as="targetPoint" />
          </mxGeometry>
        </mxCell>
        <mxCell id="ABTa0oG12swVFIuZJu5J-95" value="return tableau de recipe&lt;br&gt;filtrées" style="shape=parallelogram;perimeter=parallelogramPerimeter;whiteSpace=wrap;html=1;fixedSize=1;" vertex="1" parent="1">
          <mxGeometry x="640" y="590" width="160" height="60" as="geometry" />
        </mxCell>
        <mxCell id="ABTa0oG12swVFIuZJu5J-96" value="" style="endArrow=none;html=1;rounded=0;" edge="1" parent="1">
          <mxGeometry width="50" height="50" relative="1" as="geometry">
            <mxPoint x="780" y="900" as="sourcePoint" />
            <mxPoint x="718.4000000000001" y="680" as="targetPoint" />
          </mxGeometry>
        </mxCell>
        <mxCell id="ABTa0oG12swVFIuZJu5J-98" value="Fin" style="ellipse;whiteSpace=wrap;html=1;" vertex="1" parent="1">
          <mxGeometry x="750" y="890" width="120" height="80" as="geometry" />
        </mxCell>
        <mxCell id="ABTa0oG12swVFIuZJu5J-99" value="" style="endArrow=none;html=1;rounded=0;exitX=1;exitY=0;exitDx=0;exitDy=0;" edge="1" parent="1" source="ABTa0oG12swVFIuZJu5J-98">
          <mxGeometry width="50" height="50" relative="1" as="geometry">
            <mxPoint x="850" y="910" as="sourcePoint" />
            <mxPoint x="900" y="860" as="targetPoint" />
          </mxGeometry>
        </mxCell>
      </root>
    </mxGraphModel>
  </diagram>
</mxfile>
